<svg xmlns="http://www.w3.org/2000/svg" viewBox="0 0 64 64">
  <defs>
    <linearGradient id="grad1" x1="0%" y1="0%" x2="100%" y2="100%">
      <stop offset="0%" style="stop-color:#0ea5e9;stop-opacity:1" />
      <stop offset="100%" style="stop-color:#8b5cf6;stop-opacity:1" />
    </linearGradient>
    <linearGradient id="grad2" x1="0%" y1="0%" x2="100%" y2="100%">
      <stop offset="0%" style="stop-color:#fbbf24;stop-opacity:1" />
      <stop offset="100%" style="stop-color:#f59e0b;stop-opacity:1" />
    </linearGradient>
  </defs>
  <!-- Background circle -->
  <circle cx="32" cy="32" r="30" fill="url(#grad1)"/>
  <!-- Trophy icon -->
  <g transform="translate(16, 14)" fill="url(#grad2)">
    <!-- Trophy cup -->
    <path d="M6 4h20v2c0 6-4 11-10 12v4h6v2H10v-2h6v-4C10 17 6 12 6 6V4z" fill="#fbbf24"/>
    <!-- Trophy handles -->
    <path d="M4 6c-2 0-4 2-4 4s2 4 4 4c1 0 2-0.5 2.5-1C5.5 11.5 4 9 4 6z" fill="#fbbf24"/>
    <path d="M28 6c2 0 4 2 4 4s-2 4-4 4c-1 0-2-0.5-2.5-1C26.5 11.5 28 9 28 6z" fill="#fbbf24"/>
    <!-- Trophy base -->
    <rect x="8" y="24" width="16" height="3" rx="1" fill="#fbbf24"/>
    <rect x="11" y="27" width="10" height="4" rx="1" fill="#fbbf24"/>
  </g>
  <!-- Star accent -->
  <circle cx="50" cy="14" r="4" fill="#fbbf24" opacity="0.9"/>
</svg>
